name rise30.2954peak35.7071fall66.7804.mot
datacolumns 19
datarows 11
range 2.57999100000000 2.59666100000000
endheader
time	ground_force1_vx	ground_force1_vy	ground_force1_vz	ground_force1_px	ground_force1_py	ground_force1_pz	ground_force2_vx	ground_force2_vy	ground_force2_vz	ground_force2_px	ground_force2_py	ground_force2_pz	ground_torque1_x	ground_torque1_y	ground_torque1_z	ground_torque2_x	ground_torque2_y	ground_torque2_z	
2.57999100000000	-5.38666300000000	41.23588100000000	-13.46700300000000	0.26442400000000	0.00000000000000	0.06874300000000	-45.09715700000000	775.80399000000000	-57.40178600000000	0.09131400000000	0.00000000000000	-0.13884100000000	0.00000000000000	-8.32945700000000	0.00000000000000	0.00000000000000	-20.39334500000000	0.00000000000000	
2.58165700000000	-5.77006800000000	48.47077600000000	-15.09238000000000	0.27147300000000	0.00000000000000	0.07029700000000	-45.99030000000000	773.05785900000001	-57.07591200000000	0.09058400000000	0.00000000000000	-0.13867800000000	0.00000000000000	-9.45909400000000	0.00000000000000	0.00000000000000	-20.52793700000000	0.00000000000000	
2.58332700000000	-6.01333800000000	55.83303200000000	-16.55239900000000	0.27785100000000	0.00000000000000	0.07167900000000	-46.91184000000000	770.23719300000005	-56.73706500000000	0.08985300000000	0.00000000000000	-0.13851000000000	0.00000000000000	-10.50452200000000	0.00000000000000	0.00000000000000	-20.67094800000000	0.00000000000000	
2.58499000000000	-6.10105700000000	63.23055100000000	-17.81201200000000	0.28366800000000	0.00000000000000	0.07291700000000	-47.86036700000000	767.33924500000001	-56.38480100000000	0.08912100000000	0.00000000000000	-0.13834000000000	0.00000000000000	-11.44033700000000	0.00000000000000	0.00000000000000	-20.82195400000000	0.00000000000000	
2.58666400000000	-6.02482600000000	70.59272100000000	-18.84864500000000	0.28901200000000	0.00000000000000	0.07403400000000	-48.83435600000000	764.36109499999998	-56.01867100000000	0.08839000000000	0.00000000000000	-0.13816600000000	0.00000000000000	-12.24887300000000	0.00000000000000	0.00000000000000	-20.98049500000000	0.00000000000000	
2.58832700000000	-5.78304400000000	77.87271100000000	-19.65227500000000	0.29395100000000	0.00000000000000	0.07504700000000	-49.83217100000000	761.29966500000000	-55.63822100000000	0.08766100000000	0.00000000000000	-0.13798800000000	0.00000000000000	-12.92051300000000	0.00000000000000	0.00000000000000	-21.14607600000000	0.00000000000000	
2.58999500000000	-5.38017600000000	85.04742299999999	-20.22447000000000	0.29854100000000	0.00000000000000	0.07597100000000	-50.85206300000000	758.15172600000005	-55.24299700000000	0.08693500000000	0.00000000000000	-0.13780700000000	0.00000000000000	-13.45328900000000	0.00000000000000	0.00000000000000	-21.31817000000000	0.00000000000000	
2.59165800000000	-4.82564800000000	92.11550300000000	-20.57664800000000	0.30282700000000	0.00000000000000	0.07681900000000	-51.89218200000000	754.91390999999999	-54.83254900000000	0.08621300000000	0.00000000000000	-0.13762300000000	0.00000000000000	-13.85192800000000	0.00000000000000	0.00000000000000	-21.49621700000000	0.00000000000000	
2.59336900000000	-4.13252800000000	99.09389700000000	-20.72781800000000	0.30684600000000	0.00000000000000	0.07760000000000	-52.95057200000000	751.58272599999998	-54.40643200000000	0.08549600000000	0.00000000000000	-0.13743500000000	0.00000000000000	-14.12650700000000	0.00000000000000	0.00000000000000	-21.67962800000000	0.00000000000000	
2.59499300000000	-3.31614100000000	106.01349500000001	-20.70209700000000	0.31062900000000	0.00000000000000	0.07832200000000	-54.02517600000000	748.15456500000005	-53.96421000000000	0.08478500000000	0.00000000000000	-0.13724300000000	0.00000000000000	-14.29089100000000	0.00000000000000	0.00000000000000	-21.86778200000000	0.00000000000000	
2.59666100000000	-2.39274100000000	112.91439400000000	-20.52623600000000	0.31420200000000	0.00000000000000	0.07899200000000	-55.11384600000000	744.62572299999999	-53.50546300000000	0.08408100000000	0.00000000000000	-0.13704800000000	0.00000000000000	-14.36114100000000	0.00000000000000	0.00000000000000	-22.06003200000000	0.00000000000000	
